<?xml version="1.0" standalone="no"?>
<!DOCTYPE svg PUBLIC "-//W3C//DTD SVG 20010904//EN"
 "http://www.w3.org/TR/2001/REC-SVG-20010904/DTD/svg10.dtd">
<svg version="1.0" xmlns="http://www.w3.org/2000/svg"
 width="300.000000pt" height="300.000000pt" viewBox="0 0 300.000000 300.000000"
 preserveAspectRatio="xMidYMid meet">

<g transform="translate(0.000000,300.000000) scale(0.100000,-0.100000)"
fill="#000000" stroke="none">
<path d="M205 2981 c45 -5 50 -9 53 -33 3 -28 -13 -39 -20 -16 -3 7 -7 5 -11
-6 -4 -10 -3 -15 3 -11 6 3 10 1 10 -6 0 -9 -29 -10 -120 -5 l-120 7 0 -892 0
-891 37 7 c21 4 53 20 71 37 19 16 40 27 48 24 8 -3 14 1 14 9 0 8 9 15 19 15
11 0 22 6 24 13 4 8 8 8 14 2 11 -14 43 -18 43 -6 0 5 -4 13 -10 16 -12 8 -13
45 -1 45 5 0 18 -15 29 -32 21 -32 21 -32 29 -10 5 13 13 22 18 20 6 -2 15 12
21 31 7 21 14 30 18 22 13 -20 -26 -112 -70 -171 -23 -30 -101 -115 -173 -188
l-131 -133 0 -110 c0 -60 4 -109 9 -109 4 0 19 8 32 19 13 10 30 20 38 22 15
5 22 107 7 112 -15 5 2 37 19 37 9 0 35 13 58 29 23 15 71 42 107 59 36 17 61
31 55 32 -11 1 33 40 45 40 5 0 16 -7 24 -16 14 -14 17 -13 28 10 19 42 46 33
50 -17 1 -16 7 -23 15 -20 7 3 13 0 13 -5 0 -6 7 -18 16 -27 15 -14 14 -19 -7
-51 -21 -31 -221 -189 -374 -295 -27 -18 -66 -49 -85 -66 -19 -18 -38 -33 -42
-33 -4 0 -7 -32 -7 -70 0 -39 2 -70 4 -70 1 0 22 10 45 22 66 36 76 79 14 64
-14 -4 -24 -2 -24 4 0 11 8 13 70 10 25 -1 47 -5 50 -9 8 -11 54 -41 63 -41 4
0 5 5 2 10 -3 6 -2 10 3 10 6 0 13 15 16 34 5 28 12 35 37 40 17 3 35 3 40 0
5 -3 9 15 9 39 0 39 5 49 35 76 21 18 47 31 63 31 18 0 23 3 14 9 -11 6 -11
10 0 18 9 7 25 5 54 -7 43 -19 58 -48 43 -86 -9 -27 -138 -156 -229 -230 -168
-138 -240 -184 -290 -184 -18 0 -20 -6 -20 -55 l0 -55 1500 0 1500 0 0 300 c0
255 -2 300 -14 300 -19 0 -86 39 -86 51 0 4 7 6 15 3 9 -4 15 0 15 10 0 9 7
16 16 16 8 0 12 -5 9 -10 -4 -6 5 -5 19 2 l26 11 0 245 0 244 -37 -4 c-21 -3
-81 1 -133 8 -52 7 -112 11 -132 7 -27 -4 -46 0 -71 16 -19 11 -39 21 -45 21
-6 0 -18 -26 -27 -57 -13 -46 -28 -68 -68 -107 -139 -131 -210 -204 -228 -234
-12 -17 -24 -30 -28 -27 -5 2 -13 -7 -19 -20 -7 -14 -17 -25 -24 -25 -7 -1 -2
-8 12 -16 25 -15 25 -15 -10 -9 -78 14 -101 13 -107 -2 -5 -13 -9 -11 -24 8
-10 13 -21 20 -26 15 -4 -5 -2 -11 5 -13 17 -6 15 -23 -2 -23 -8 0 -21 -6 -28
-13 -35 -33 -88 -67 -88 -56 0 7 -11 0 -24 -14 -13 -14 -27 -23 -30 -20 -3 4
-6 1 -6 -5 0 -7 -7 -12 -15 -12 -8 0 -15 4 -15 9 0 9 -37 24 -56 22 -6 -1 -17
10 -24 25 -14 25 -16 25 -90 19 -77 -6 -154 -19 -227 -37 -43 -10 -119 -3
-129 13 -9 16 -25 10 -23 -8 3 -34 -1 -36 -25 -14 -25 24 -25 43 1 69 10 10
19 9 50 -6 66 -33 229 -20 338 28 11 5 33 11 49 15 15 3 53 30 83 60 30 30 61
55 69 55 8 0 14 5 14 10 0 7 13 8 37 4 32 -6 35 -5 30 10 -4 10 -7 25 -7 34 0
14 -14 18 -92 20 -51 2 -100 8 -108 12 -44 24 -158 19 -372 -16 -30 -5 -38 -3
-38 9 0 9 12 18 29 22 16 3 35 12 41 20 6 7 30 13 55 13 24 0 49 3 54 6 15 9
174 21 283 21 85 -1 101 -3 128 -24 25 -18 34 -20 46 -11 11 10 17 10 29 0 18
-15 20 1 3 18 -9 9 -8 12 5 12 9 0 17 5 17 10 0 6 -7 10 -15 10 -8 0 -15 5
-15 12 0 6 -8 20 -17 31 -17 19 -17 20 5 15 26 -7 28 -2 7 18 -20 20 -19 32 3
30 9 0 30 -18 47 -39 16 -21 31 -33 33 -27 2 5 -4 17 -12 26 -9 8 -16 23 -16
31 0 14 4 13 23 -4 37 -33 55 -35 49 -6 -4 20 -2 24 9 18 12 -8 12 -6 0 8 -7
9 -18 14 -25 10 -6 -4 -5 1 3 11 12 15 12 17 0 14 -20 -4 -24 47 -5 73 16 23
11 49 -9 49 -7 0 -15 7 -19 15 -4 10 1 15 16 15 18 0 19 2 7 16 -12 14 -8 16
36 13 44 -4 50 -2 47 15 -2 12 1 16 9 11 9 -6 10 -1 4 21 -5 16 -9 41 -9 57
-1 15 -4 27 -8 27 -5 0 -8 11 -8 25 0 14 -5 34 -12 45 -9 15 -9 24 1 43 7 14
10 31 6 38 -5 7 -4 10 3 5 6 -3 13 -2 17 4 4 6 11 8 16 5 5 -3 6 2 2 11 -4 11
-2 15 4 11 9 -6 22 46 25 108 1 11 6 23 11 26 14 10 -11 49 -27 43 -8 -3 -28
2 -46 11 -28 14 -31 20 -25 48 4 21 3 27 -3 19 -15 -22 -34 42 -21 75 5 14 8
27 6 30 -2 2 -21 -4 -41 -12 l-38 -16 3 48 c3 63 6 70 30 69 24 -1 39 -22 39
-55 0 -24 0 -24 15 -5 26 34 18 63 -35 118 -28 29 -50 56 -50 59 0 4 15 4 33
1 24 -4 29 -3 17 5 -10 8 -12 13 -4 19 24 16 34 50 24 78 -11 29 3 128 22 151
14 17 0 73 -16 67 -15 -6 -29 22 -20 38 5 7 -2 9 -21 4 -23 -6 -34 -2 -59 22
-17 17 -59 40 -92 52 -55 20 -63 25 -74 60 -7 22 -20 41 -29 43 -9 3 -1 5 17
6 39 1 41 13 5 31 l-28 13 24 6 c21 6 22 8 7 20 -9 7 -16 20 -16 27 0 8 -7 14
-15 14 -17 0 -20 16 -4 25 15 10 -19 45 -45 46 -21 0 -21 0 -1 8 34 14 136 -9
185 -41 25 -17 74 -62 110 -102 35 -39 95 -102 132 -139 37 -38 78 -83 90
-100 29 -41 39 -48 55 -35 13 10 11 47 -4 101 -3 11 1 17 14 17 10 0 25 5 33
11 12 9 11 10 -7 6 -12 -3 -27 1 -34 9 -6 8 -15 11 -20 8 -5 -3 -9 6 -9 20 0
13 -3 33 -6 43 -6 15 -4 16 7 6 23 -22 30 -14 14 17 -18 35 -19 54 -2 44 6 -4
5 1 -4 12 -9 10 -19 27 -23 38 -5 14 -9 16 -20 7 -17 -15 -49 -3 -42 16 3 8 1
11 -4 8 -6 -3 -10 -1 -10 5 0 7 -6 8 -19 0 -29 -15 -39 -12 -47 12 -6 20 -8
20 -19 5 -7 -9 -22 -17 -34 -17 -17 0 -21 6 -21 29 0 16 6 32 13 34 6 3 -422
5 -953 5 -531 -1 -942 -4 -915 -7z m1845 -11 c0 -5 -4 -10 -10 -10 -5 0 -10 5
-10 10 0 6 5 10 10 10 6 0 10 -4 10 -10z m190 -142 c20 -22 26 -38 13 -38 -10
0 -53 42 -53 52 0 15 19 8 40 -14z m25 -69 c11 -17 -1 -21 -15 -4 -8 9 -8 15
-2 15 6 0 14 -5 17 -11z m-512 -322 c-37 -63 -128 -144 -155 -139 -4 1 -12 -7
-18 -17 -6 -13 -17 -17 -30 -14 -14 4 -23 -1 -30 -18 -9 -20 -9 -18 -4 11 4
19 10 36 15 38 14 5 69 91 69 108 0 7 8 14 18 14 9 0 29 11 43 24 45 42 118
36 92 -7z m-253 -497 c39 -21 100 -167 100 -240 0 -29 10 -48 50 -95 43 -51
50 -65 50 -101 0 -24 -4 -45 -10 -49 -5 -3 -31 -7 -58 -9 -77 -4 -149 -60
-127 -97 11 -17 -26 -49 -57 -49 -35 0 -58 11 -122 62 -40 32 -56 39 -85 36
-32 -3 -36 0 -39 23 -4 37 22 54 87 56 111 5 195 26 220 57 18 22 16 74 -3 95
-9 10 -16 28 -16 42 0 13 -9 48 -20 76 -29 77 -35 161 -14 184 20 22 20 22 44
9z m1380 -1072 c-11 -18 -20 -43 -20 -55 0 -12 -5 -25 -12 -29 -8 -5 -9 -2 -5
10 4 10 7 23 7 29 0 14 37 77 45 77 2 0 -4 -15 -15 -32z m-1645 -138 c3 -5 -3
-10 -15 -10 -12 0 -18 5 -15 10 3 6 10 10 15 10 5 0 12 -4 15 -10z"/>
<path d="M2788 2779 c30 -12 28 -14 -19 -16 -58 -4 -150 -73 -157 -119 -15
-100 -15 -98 20 -144 53 -70 52 -68 12 -85 -20 -8 -40 -12 -45 -9 -5 3 -9 0
-9 -7 0 -6 -9 -19 -19 -28 -21 -18 -53 -68 -77 -120 -23 -50 -11 -147 22 -186
13 -15 24 -31 24 -34 0 -3 -16 -19 -35 -34 -19 -15 -35 -33 -35 -38 0 -6 -15
-29 -34 -52 -47 -58 -52 -84 -26 -146 13 -29 27 -48 33 -44 5 3 7 1 4 -5 -4
-5 -4 -18 0 -28 6 -16 7 -16 19 0 11 16 14 15 27 -10 14 -27 15 -27 21 -6 4
13 13 19 22 15 7 -3 14 -1 14 5 0 5 9 12 21 15 13 4 18 10 13 18 -5 9 -1 10
17 6 13 -4 27 -7 32 -7 4 0 7 -6 7 -12 1 -17 46 -68 60 -68 6 0 8 -4 5 -10 -3
-5 -1 -10 4 -10 6 0 11 -4 11 -10 0 -5 -12 -10 -26 -10 -14 0 -34 -5 -45 -11
-15 -7 -24 -7 -33 1 -14 11 -78 11 -70 -1 2 -4 -8 -28 -22 -53 -16 -29 -28
-69 -31 -105 -6 -65 11 -135 32 -127 7 2 18 -1 24 -7 6 -6 35 -10 66 -8 37 2
62 -3 77 -13 12 -9 35 -16 51 -16 16 0 35 -7 43 -15 9 -8 33 -15 55 -15 22 0
38 -3 36 -7 -3 -5 24 -9 59 -10 57 -2 64 -1 64 16 0 11 -12 23 -30 31 -36 15
-58 39 -44 48 6 4 14 16 18 27 5 13 10 15 13 8 3 -7 13 -13 24 -13 18 0 19 9
19 136 0 118 -2 139 -17 150 -17 13 -17 15 0 25 14 8 17 26 17 113 l0 104 -45
6 c-35 6 -45 11 -45 26 0 10 4 21 9 24 4 3 11 19 14 36 6 27 9 29 37 24 l30
-6 0 401 c0 339 -2 401 -14 401 -29 0 -46 -13 -46 -33 0 -17 -3 -18 -12 -9
-10 10 -10 17 0 32 10 16 10 20 -2 20 -7 0 -20 -7 -27 -16 -12 -15 -15 -14
-29 3 -10 13 -29 19 -60 20 -35 1 -40 -1 -22 -8z m102 -785 c0 -8 -5 -12 -10
-9 -6 4 -8 11 -5 16 9 14 15 11 15 -7z m50 -315 c0 -6 -4 -7 -10 -4 -5 3 -10
11 -10 16 0 6 5 7 10 4 6 -3 10 -11 10 -16z"/>
<path d="M2345 2750 c-3 -5 1 -10 10 -10 9 0 13 5 10 10 -3 6 -8 10 -10 10 -2
0 -7 -4 -10 -10z"/>
<path d="M2443 2667 c3 -9 1 -17 -5 -19 -7 -3 -1 -19 16 -41 16 -21 31 -35 34
-32 7 7 -27 93 -40 102 -7 4 -9 0 -5 -10z"/>
<path d="M2307 2533 c-3 -4 4 -28 14 -53 l19 -45 -3 49 c-2 45 -17 70 -30 49z"/>
<path d="M2377 2509 c4 -13 8 -18 11 -10 2 7 -1 18 -6 23 -8 8 -9 4 -5 -13z"/>
<path d="M2410 2430 c0 -6 7 -10 15 -10 8 0 15 2 15 4 0 2 -7 6 -15 10 -8 3
-15 1 -15 -4z"/>
<path d="M2350 2420 c1 -8 7 -28 16 -45 l14 -30 -5 35 c-5 35 -25 67 -25 40z"/>
<path d="M2380 2328 c1 -15 24 -48 34 -48 15 0 4 40 -14 50 -15 8 -20 8 -20
-2z"/>
<path d="M2198 2044 c-12 -26 2 -72 31 -98 15 -14 19 -14 39 0 28 19 29 63 1
95 -27 31 -58 33 -71 3z"/>
<path d="M2748 1213 c7 -3 16 -2 19 1 4 3 -2 6 -13 5 -11 0 -14 -3 -6 -6z"/>
<path d="M2798 1213 c7 -3 16 -2 19 1 4 3 -2 6 -13 5 -11 0 -14 -3 -6 -6z"/>
<path d="M180 315 c0 -15 4 -24 10 -20 6 3 10 12 10 20 0 8 -4 17 -10 20 -6 4
-10 -5 -10 -20z"/>
</g>
</svg>
