<?xml version="1.0" standalone="no"?>
<!DOCTYPE svg PUBLIC "-//W3C//DTD SVG 20010904//EN"
 "http://www.w3.org/TR/2001/REC-SVG-20010904/DTD/svg10.dtd">
<svg version="1.0" xmlns="http://www.w3.org/2000/svg"
 width="300.000000pt" height="300.000000pt" viewBox="0 0 300.000000 300.000000"
 preserveAspectRatio="xMidYMid meet">
<metadata>
Created by potrace 1.10, written by Peter Selinger 2001-2011
</metadata>
<g transform="translate(0.000000,300.000000) scale(0.050000,-0.050000)"
fill="#999999" stroke="none">
<path d="M0 5950 c0 -24 31 -30 155 -32 153 -1 189 -5 279 -27 25 -7 46 -4 46
5 0 28 148 0 176 -34 25 -29 26 -29 17 0 -11 38 19 93 39 72 8 -8 19 -62 24
-120 l8 -106 91 1 c85 1 90 -2 96 -56 9 -77 29 -93 29 -23 0 54 1 55 39 21 46
-42 108 -34 117 15 4 19 0 33 -9 31 -10 -2 -42 7 -73 20 -31 13 -74 23 -95 23
-52 0 -121 71 -106 110 13 35 239 44 250 10 9 -25 124 -31 229 -11 66 12 84 9
94 -17 8 -21 2 -32 -17 -32 -17 0 -39 -22 -49 -50 -10 -27 -27 -50 -36 -50 -9
0 -29 -31 -44 -70 -15 -38 -35 -70 -45 -70 -10 0 -11 11 -3 25 8 14 7 18 -2
10 -9 -8 -27 0 -40 18 -17 23 -28 26 -38 10 -8 -13 -5 -23 7 -23 37 0 83 -139
60 -182 -23 -42 -83 -52 -77 -13 14 85 -78 171 -116 109 -9 -14 -59 -60 -111
-102 -95 -77 -122 -132 -64 -132 17 0 26 -9 19 -20 -7 -12 -20 -16 -29 -11 -9
6 -22 -10 -28 -34 -18 -64 -15 -90 5 -58 16 26 46 -41 50 -117 3 -42 112 -53
112 -12 0 18 -11 26 -28 20 -39 -15 -54 17 -40 86 10 52 19 57 85 54 99 -4 97
-4 111 -41 14 -36 -23 -92 -50 -76 -10 6 -18 2 -18 -10 0 -11 11 -22 25 -22
14 -1 5 -10 -20 -20 -53 -21 -79 -73 -51 -101 11 -11 16 -42 11 -68 -8 -40
-14 -44 -35 -23 -15 15 -21 49 -16 79 12 63 -32 76 -48 15 -6 -21 -25 -42 -43
-47 -24 -6 -18 -14 24 -31 66 -27 61 -72 -9 -76 -26 -2 -60 -4 -76 -5 -22 -2
-25 -28 -14 -130 7 -73 4 -151 -8 -181 -12 -32 -13 -82 -3 -130 15 -63 11 -81
-18 -102 -31 -22 -32 -29 -6 -55 16 -16 25 -41 19 -57 -6 -15 -4 -27 4 -27 8
0 11 -40 7 -88 -4 -48 4 -108 18 -133 20 -37 19 -50 -5 -67 -31 -23 -36 -223
-8 -269 24 -39 -59 -26 -95 14 -21 23 -52 34 -81 28 -34 -6 -49 2 -57 33 -9
34 -22 40 -71 30 -70 -14 -95 14 -64 72 24 45 71 53 87 15 6 -15 10 -11 11 10
1 19 -7 35 -18 35 -11 0 -20 13 -20 29 0 56 -42 53 -99 -7 -35 -39 -77 -62
-109 -62 -29 0 -52 -7 -52 -16 0 -31 49 -64 94 -64 28 0 74 -31 118 -80 80
-88 102 -96 138 -47 27 37 59 25 92 -36 20 -38 17 -40 -45 -29 -53 10 -58 8
-24 -7 24 -10 52 -33 61 -50 16 -28 23 -27 61 9 51 47 115 54 98 11 -43 -111
-37 -171 26 -266 35 -52 68 -90 74 -85 15 15 65 -83 67 -130 0 -22 23 -61 50
-87 28 -26 51 -67 51 -90 3 -86 20 -144 49 -165 17 -12 30 -45 30 -73 0 -27
13 -88 30 -135 103 -291 -42 -685 -324 -884 -467 -329 -846 -628 -846 -668 0
-22 9 -25 35 -11 89 48 285 36 285 -17 0 -22 9 -40 20 -40 11 0 20 25 20 55 0
45 17 64 88 102 49 26 94 66 100 90 9 33 16 37 29 16 12 -18 23 -20 31 -7 7
12 4 27 -8 34 -30 19 -24 50 10 50 17 0 30 14 30 30 0 17 18 30 42 30 50 0
218 171 218 221 0 42 59 68 87 40 35 -35 46 -24 37 39 -10 72 12 76 85 12 49
-42 101 -51 191 -33 6 2 -37 25 -95 53 -110 54 -131 93 -67 127 37 20 64 95
73 201 9 110 7 107 39 80 17 -14 31 -17 32 -7 7 45 34 -115 36 -209 2 -92 12
-119 79 -200 42 -52 102 -139 133 -194 57 -102 156 -210 193 -210 12 0 16 -15
9 -32 -9 -23 -4 -29 18 -21 16 7 30 3 30 -8 0 -10 14 -19 30 -19 41 0 38 24
-10 75 -22 24 -40 51 -40 59 0 9 -18 28 -40 41 -29 18 -41 49 -42 110 -2 47
-7 69 -12 50 -5 -19 -18 -35 -30 -35 -11 0 -16 17 -11 38 7 25 -2 42 -24 47
-63 17 -177 302 -139 347 12 15 15 45 8 67 -9 30 -4 41 20 41 18 0 27 9 19 21
-8 14 -22 13 -41 -3 -16 -13 -32 -20 -36 -16 -20 25 -50 146 -39 163 7 10 0
27 -15 36 -14 9 -28 37 -29 63 -2 25 -12 69 -24 96 -22 54 -59 177 -133 440
-64 227 -131 400 -153 400 -11 0 -19 14 -19 30 0 17 -13 30 -30 30 -16 0 -30
-10 -30 -23 0 -13 -5 -19 -11 -12 -20 20 -49 270 -50 439 -2 167 4 230 42 440
11 63 21 157 22 210 1 53 10 113 21 133 11 21 19 82 19 136 0 54 12 141 28
193 16 52 29 113 29 137 0 23 14 53 30 67 17 14 30 40 30 57 0 18 27 98 60
178 34 79 90 212 124 295 116 276 364 472 686 542 141 31 376 37 331 9 -31
-19 339 -37 489 -24 64 6 72 11 40 24 -36 15 -35 16 11 18 28 0 63 -16 79 -39
16 -22 45 -40 64 -40 20 0 36 -9 36 -20 0 -11 18 -20 40 -20 63 0 47 33 -25
51 l-65 16 69 8 c40 5 73 -1 77 -13 4 -12 45 -21 91 -20 79 3 80 3 23 19 -46
12 -31 15 66 14 69 -1 148 -13 174 -27 30 -15 70 -19 104 -10 44 12 48 17 20
28 -86 33 -37 78 71 64 148 -19 219 -73 467 -353 120 -135 247 -275 283 -311
63 -63 86 -101 45 -76 -33 21 -22 -21 17 -67 21 -24 63 -110 94 -191 50 -129
60 -144 82 -115 23 29 26 27 26 -23 1 -30 16 -89 34 -130 18 -41 52 -149 77
-241 31 -115 50 -159 62 -140 19 28 26 394 8 393 -55 -4 -80 10 -80 43 0 21
-9 44 -20 51 -11 7 -20 34 -20 60 0 25 -10 50 -22 54 -18 6 -106 357 -92 368
21 17 194 26 194 11 0 -11 16 -25 36 -32 51 -16 54 -110 4 -145 -51 -36 -51
-59 3 -88 37 -20 41 -18 30 11 -18 47 4 78 36 52 36 -30 50 52 39 236 -6 89
-2 142 10 135 74 -46 100 79 40 192 -23 42 -138 106 -138 77 0 -11 22 -26 50
-33 27 -7 45 -19 40 -28 -5 -9 3 -41 19 -72 33 -62 28 -79 -18 -61 -19 7 -26
25 -18 47 9 24 6 29 -7 16 -13 -13 -15 -76 -5 -170 18 -181 14 -188 -34 -71
-40 97 -81 112 -71 24 4 -29 -3 -53 -15 -53 -11 0 -21 13 -21 29 0 19 -16 26
-49 19 -39 -7 -47 -2 -38 23 10 25 2 29 -38 18 -28 -7 -56 -3 -64 9 -9 15 -29
11 -62 -11 -45 -29 -49 -29 -49 1 0 17 15 32 33 32 26 0 30 14 21 72 -12 71
-11 72 27 37 48 -43 54 -1 8 60 -31 41 -39 93 -14 89 45 -8 49 6 9 33 -25 18
-40 39 -35 48 6 9 -2 27 -18 40 -22 18 -32 16 -46 -9 -22 -39 -92 -18 -76 24
6 15 2 23 -9 16 -11 -7 -20 6 -20 29 0 22 -10 41 -22 41 -12 0 -18 -12 -12
-27 13 -32 -59 -99 -88 -82 -11 7 -15 27 -9 46 16 52 -23 103 -41 52 -40 -111
-108 -122 -108 -18 0 63 154 120 177 65 11 -28 98 -17 110 14 10 27 -242 30
-2198 30 -1950 0 -2209 -4 -2209 -30z m4487 -298 c18 -27 28 -63 21 -79 -6
-16 -1 -35 11 -42 11 -7 21 -33 21 -57 0 -38 -6 -35 -41 22 -22 37 -35 75 -28
85 6 11 3 19 -7 19 -10 0 -42 24 -71 53 -29 29 -53 41 -53 27 0 -14 13 -36 28
-48 15 -12 34 -43 42 -68 13 -46 13 -46 -31 -10 -113 93 -145 146 -88 146 16
0 35 13 42 30 15 39 107 -7 154 -78z m-3383 -253 c5 -32 -1 -62 -13 -67 -12
-6 -5 -22 18 -41 21 -17 34 -35 29 -40 -16 -15 -217 -19 -232 -3 -36 35 -14
103 44 134 40 22 62 51 66 87 9 72 75 20 88 -70z m3594 -71 c34 -7 62 -21 62
-30 0 -30 -114 -20 -140 12 -28 33 -15 36 78 18z m-3779 -739 c-62 -75 -91
-35 -45 62 l35 72 17 -52 c12 -35 10 -62 -7 -82z m-422 -3600 c-7 -35 -9 -34
-43 0 -29 29 -32 40 -11 53 34 21 63 -8 54 -53z"/>
<path d="M4460 5930 c0 -27 9 -50 20 -50 11 0 20 19 20 41 0 43 74 39 103 -6
7 -12 18 -10 27 5 12 19 19 18 31 -1 26 -42 78 -39 102 6 20 37 24 38 40 8 23
-40 77 -44 77 -4 0 15 16 32 35 37 19 5 -75 10 -210 12 l-245 2 0 -50z"/>
<path d="M4950 5945 c-8 -19 -17 -71 -21 -115 -4 -58 -1 -66 9 -30 13 49 18
50 263 61 l249 11 -250 8 -250 8 250 12 250 11 -170 10 c-132 9 -97 12 156 15
228 3 322 -2 313 -17 -7 -12 5 -10 28 4 75 47 4 56 -410 57 -365 0 -404 -3
-417 -35z"/>
<path d="M4532 5883 c-7 -11 5 -30 26 -42 53 -28 87 -26 76 4 -5 14 -21 22
-35 19 -14 -3 -32 4 -40 17 -9 16 -18 17 -27 2z"/>
<path d="M3345 5846 c19 -5 35 -22 35 -37 0 -16 14 -29 30 -29 17 0 30 9 30
19 0 24 -68 62 -104 59 -14 -2 -10 -7 9 -12z"/>
<path d="M0 5739 c0 -73 3 -79 39 -60 50 27 87 27 70 -1 -10 -15 -1 -15 29 1
30 16 42 16 42 0 0 -12 16 -20 35 -18 73 7 102 -2 111 -36 7 -26 10 -24 12 10
2 50 42 63 42 14 0 -17 19 -67 41 -111 l41 -81 38 43 c36 42 35 100 -2 100
-10 0 -18 19 -18 42 0 33 6 38 26 21 15 -12 61 -21 103 -19 71 2 73 5 39 31
-36 28 -35 28 9 15 38 -11 45 -7 40 23 -7 32 -41 40 -247 60 -132 13 -287 29
-345 35 l-105 12 0 -81z"/>
<path d="M3280 5800 c27 -18 27 -22 0 -40 -40 -26 -75 -25 -84 3 -6 17 -19 17
-51 0 -23 -13 -74 -23 -114 -23 -39 0 -71 -9 -71 -20 0 -13 -39 -17 -100 -12
-55 5 -104 1 -110 -8 -6 -9 -62 -23 -125 -29 -63 -7 -149 -15 -190 -20 -42 -4
-70 1 -64 11 6 10 2 18 -10 18 -11 0 -21 -11 -21 -25 -1 -18 -5 -18 -18 2 -12
19 -36 23 -82 13 -35 -8 -112 -14 -171 -13 -59 1 -113 -7 -119 -18 -7 -10 -25
-19 -40 -19 -69 0 -135 -40 -111 -69 20 -24 37 -21 117 15 82 36 125 41 337
37 270 -6 509 21 712 81 92 27 165 36 230 29 446 -54 507 -54 463 0 -22 26
-22 35 -3 42 40 14 29 65 -15 65 -27 0 -40 -13 -40 -41 0 -56 -207 -52 -268 5
-22 20 -49 36 -61 36 -11 0 -7 -9 9 -20z"/>
<path d="M4740 5728 c0 -6 19 -38 41 -70 45 -63 33 -77 -23 -26 -44 39 -69 0
-75 -118 -4 -72 -2 -75 38 -53 32 17 37 29 21 45 -40 40 -23 59 44 46 55 -10
74 -4 110 38 56 64 55 70 -12 70 -32 0 -67 17 -84 40 -28 38 -60 53 -60 28z"/>
<path d="M5609 5679 c-7 -12 -25 -17 -39 -12 -17 7 -22 -3 -15 -28 6 -24 -1
-40 -18 -41 -51 -2 -147 -14 -177 -21 -16 -4 -34 2 -40 13 -5 11 12 23 39 27
48 7 47 8 -17 35 -70 29 -242 39 -242 13 1 -28 30 -55 58 -55 47 0 50 -52 3
-64 -45 -12 -49 -80 -5 -71 43 9 27 -91 -16 -105 -53 -17 -32 -50 31 -50 34 0
49 -11 48 -35 -1 -58 -47 -120 -84 -114 -19 3 -35 -3 -35 -13 0 -10 16 -18 35
-18 21 0 54 -35 82 -89 26 -49 78 -110 115 -135 94 -64 70 -92 -65 -74 -7 1
-19 -10 -28 -23 -22 -36 -63 -2 -49 41 6 20 2 42 -9 49 -12 8 -22 56 -22 107
-1 70 -6 83 -18 53 -16 -38 4 -229 28 -267 6 -10 -16 -44 -49 -75 -33 -31 -60
-64 -60 -73 0 -9 -22 -49 -50 -90 -77 -113 -61 -364 28 -447 57 -52 53 -66
-28 -114 -38 -23 -70 -52 -70 -65 0 -13 -32 -63 -72 -112 -136 -166 -74 -444
132 -595 95 -69 95 -69 28 -182 -109 -187 -72 -469 70 -528 l56 -23 -26 -98
c-43 -166 -88 -236 -215 -337 -68 -53 -225 -197 -349 -320 -124 -123 -233
-223 -242 -223 -9 0 -27 -12 -40 -27 -13 -16 -44 -23 -72 -18 -38 7 -50 1 -50
-26 0 -32 -29 -25 -31 8 0 7 -12 33 -25 58 -19 33 -19 45 -2 45 17 0 17 7 1
26 -16 20 -16 33 1 50 19 19 18 24 0 24 -13 0 -24 20 -24 45 0 26 -25 65 -58
91 -54 42 -68 124 -20 124 9 0 12 -13 5 -30 -7 -19 1 -30 21 -30 18 0 32 -9
32 -20 0 -11 16 -20 35 -20 28 1 29 4 7 18 -17 11 -21 27 -10 45 25 38 24 117
-1 115 -12 -2 -32 -2 -44 0 -28 2 -187 156 -187 180 0 36 -84 40 -93 5 -13
-50 -87 -94 -87 -53 0 17 14 36 30 43 17 6 30 36 30 67 0 73 55 96 95 38 24
-34 34 -37 49 -15 15 22 21 22 29 1 8 -20 17 -20 39 -2 21 17 28 17 28 0 0
-65 105 -183 131 -147 20 26 20 37 3 42 -31 10 -74 64 -73 92 0 11 16 3 36
-19 19 -22 65 -67 102 -100 67 -60 69 -58 27 45 -24 58 27 18 56 -44 24 -51
25 -65 5 -57 -15 6 -27 -1 -27 -15 0 -16 -19 -8 -47 19 -55 51 -83 19 -61 -70
13 -50 88 -109 88 -69 0 12 -12 21 -27 21 -17 0 -28 21 -28 51 0 52 36 38 102
-41 10 -12 12 -5 6 15 -8 22 -1 35 16 35 40 0 59 76 29 112 -14 17 -27 50 -30
74 -10 91 -61 162 -87 121 -19 -31 -20 -25 -10 31 9 47 7 63 -9 53 -13 -8 -18
-21 -13 -30 16 -25 -45 -67 -105 -74 -36 -3 -45 0 -26 12 39 24 -27 61 -108
61 -16 0 -30 13 -30 29 0 31 -81 35 -102 5 -8 -10 -32 -8 -57 5 -24 13 -69 18
-101 11 -43 -9 -68 -2 -99 29 -22 22 -53 41 -69 41 -15 0 -32 18 -38 40 -7 27
-29 41 -67 43 -31 1 -79 4 -107 5 -29 1 -48 13 -45 27 3 14 -15 25 -40 25 -36
-1 -39 -5 -16 -19 17 -10 23 -25 16 -33 -8 -8 -6 -25 5 -39 26 -30 -10 -62
-80 -72 -54 -8 -79 -187 -31 -222 14 -10 11 -22 -9 -34 -18 -12 -37 -12 -48
-1 -10 10 -45 12 -78 6 l-60 -12 13 83 c12 74 9 83 -27 83 -36 0 -50 -21 -42
-67 2 -9 -8 -13 -22 -8 -45 15 -40 69 7 82 43 11 43 13 10 50 -42 46 -29 57
86 71 48 6 97 20 108 31 12 12 35 21 53 21 19 0 43 30 58 71 17 48 35 68 54
61 15 -6 28 -3 28 7 0 10 -11 22 -25 28 -14 5 -6 11 17 11 23 1 58 20 78 42
20 22 48 40 63 40 40 0 33 36 -12 59 -57 31 -113 26 -200 -19 -108 -55 -181
-160 -111 -160 17 0 30 -9 30 -20 0 -11 -9 -20 -20 -20 -11 0 -20 -12 -20 -27
0 -91 -163 -53 -327 75 -121 94 -172 111 -209 67 -28 -34 23 -104 65 -88 19 7
39 -4 52 -30 20 -37 18 -39 -24 -26 -167 52 -233 170 -189 339 9 33 21 116 26
185 8 88 19 125 38 125 16 0 28 21 28 48 0 27 9 52 19 55 11 4 26 69 33 145 9
92 7 134 -7 125 -23 -14 -46 -107 -51 -209 -2 -36 -14 -72 -25 -80 -12 -8 -28
-30 -35 -49 -7 -19 -26 -35 -41 -35 -20 0 -32 -30 -38 -95 -5 -52 -32 -158
-60 -235 -51 -140 -51 -140 -13 -206 21 -37 38 -79 38 -95 0 -23 9 -24 50 -5
42 19 58 16 95 -17 42 -37 108 -72 175 -94 23 -8 22 -10 -5 -11 -19 -1 -35
-15 -35 -32 0 -16 -18 -30 -39 -30 -44 0 -81 -55 -66 -98 6 -17 1 -22 -13 -14
-23 15 -82 -31 -82 -63 0 -10 -36 -29 -80 -43 -46 -13 -80 -36 -80 -53 0 -16
-18 -29 -41 -29 -23 0 -36 -9 -29 -20 7 -11 -1 -25 -17 -32 -16 -6 -35 -33
-42 -59 -6 -27 -21 -49 -31 -49 -11 0 -20 -28 -20 -61 0 -34 -8 -56 -19 -50
-11 7 -11 36 0 76 23 79 23 75 1 75 -62 0 -83 -227 -33 -353 19 -46 31 -100
27 -120 -6 -34 13 -41 74 -27 52 12 171 -2 161 -19 -14 -22 30 -101 56 -101
10 0 12 20 6 45 -13 51 86 167 102 120 5 -14 18 -25 30 -25 11 0 49 -31 83
-69 59 -65 152 -112 152 -77 0 9 -22 41 -50 70 -28 30 -50 63 -50 73 0 11 -11
23 -24 28 -33 11 -1 55 41 55 19 0 46 -11 59 -24 19 -19 24 -11 24 33 l0 57
190 -13 c125 -9 190 -7 190 7 0 11 30 20 67 20 37 0 96 10 132 22 74 26 124 0
86 -46 -17 -20 -4 -27 61 -32 98 -7 108 -13 74 -54 -27 -33 -135 -29 -158 6
-7 11 -39 9 -79 -5 l-67 -23 52 -23 c54 -25 75 -78 22 -58 -39 15 -39 -21 0
-60 33 -33 70 -20 70 24 0 16 9 29 20 29 11 0 20 -13 20 -30 0 -73 180 39 244
152 71 127 259 137 291 15 5 -20 25 -37 43 -37 21 0 44 -28 59 -70 14 -38 32
-68 39 -67 8 1 30 1 49 -1 42 -2 47 -42 6 -42 -35 0 -78 -72 -61 -100 7 -11
34 -20 61 -20 32 0 44 -9 37 -27 -6 -16 4 -42 21 -59 17 -17 31 -50 31 -73 0
-22 9 -41 20 -41 31 0 23 -34 -11 -48 -17 -6 -26 -3 -20 6 15 25 -53 142 -83
142 -14 0 -23 -31 -22 -78 0 -61 7 -76 30 -68 21 9 28 1 23 -26 -4 -21 -27
-41 -52 -44 -46 -7 -61 -52 -25 -74 11 -7 20 -30 20 -52 0 -66 94 17 109 96
16 82 44 99 91 56 40 -36 80 -26 80 21 0 16 17 29 38 29 21 0 37 11 37 25 -3
81 7 118 31 109 16 -6 27 8 29 37 4 39 -4 45 -50 40 -44 -5 -55 -16 -53 -54 2
-26 -7 -54 -20 -62 -16 -11 -14 -20 5 -32 21 -14 20 -20 -7 -30 -48 -19 -74
-16 -61 6 12 18 6 35 -45 135 -28 53 4 83 33 31 19 -33 23 -32 64 12 29 31 59
44 91 38 41 -8 44 -4 25 30 -18 34 -15 37 24 25 31 -10 41 -7 35 11 -4 14 -50
38 -102 53 -115 33 -122 55 -14 41 45 -7 75 -3 69 7 -6 10 12 18 40 18 28 0
51 9 51 20 0 11 18 20 40 20 22 0 40 11 40 25 1 19 5 18 18 -2 12 -20 22 -10
38 35 12 34 32 62 44 62 40 0 80 56 68 94 -8 25 -6 28 6 11 13 -18 32 -2 67
60 65 115 77 53 22 -112 -22 -68 -51 -163 -63 -211 -29 -112 -178 -414 -283
-576 -44 -68 -75 -133 -68 -144 17 -28 107 14 118 56 6 23 9 21 10 -8 2 -56
-49 -117 -86 -103 -19 7 -31 1 -31 -18 0 -16 -15 -29 -34 -29 -26 0 -29 5 -10
24 64 64 11 74 -57 11 -26 -25 -56 -42 -65 -39 -10 3 -14 -6 -9 -20 19 -58
275 -27 275 33 0 18 12 25 30 18 23 -8 30 4 30 48 0 33 14 71 30 85 17 14 26
30 21 36 -5 5 18 44 51 87 34 42 55 77 47 77 -8 0 -5 11 6 25 29 37 105 268
105 321 0 25 10 56 21 67 12 12 25 43 29 69 14 100 30 146 55 161 14 8 26 25
28 36 1 12 4 26 7 31 3 6 7 19 10 30 3 11 7 27 10 35 2 8 3 31 1 51 -2 20 7
49 20 65 13 16 19 47 13 69 -6 24 -2 35 10 27 12 -7 16 -51 11 -100 -6 -50 -1
-93 11 -100 11 -7 14 -4 7 8 -7 11 1 32 17 45 16 13 25 33 18 42 -6 10 17 34
51 53 50 29 61 48 61 108 0 79 44 107 134 84 44 -11 50 -25 53 -122 1 -68 33
-54 33 15 0 75 2 82 38 124 33 39 62 29 62 -20 0 -27 19 -34 100 -33 55 0 100
-3 100 -6 0 -43 -114 -165 -155 -165 -45 0 -49 -7 -41 -69 4 -38 4 -66 0 -61
-5 4 -30 -33 -57 -84 -81 -152 -35 -426 72 -426 12 0 21 -25 21 -56 0 -60 63
-129 138 -153 51 -17 55 -45 7 -57 -29 -8 -28 -10 6 -12 22 -1 60 -16 85 -33
40 -28 44 -28 44 1 0 24 11 29 40 20 22 -7 40 -4 40 7 0 11 -20 24 -45 29
l-45 9 45 2 c83 5 60 97 -31 122 -328 88 -324 526 8 834 62 57 68 73 68 175
l0 112 -195 1 c-479 4 -656 57 -630 188 6 34 20 67 31 74 10 7 13 23 5 35 -7
12 -4 22 8 22 11 0 7 16 -9 35 -17 19 -29 40 -27 45 2 6 -7 30 -19 53 -43 80
-9 222 59 245 36 13 57 13 57 1 0 -11 60 -19 135 -17 186 3 201 1 169 -19 -24
-15 194 -14 331 3 153 18 113 50 -93 74 -90 10 -172 24 -183 31 -27 16 -123
30 -264 37 -199 10 -328 113 -278 223 13 28 23 59 23 70 0 29 -60 23 -61 -6
-1 -37 -44 45 -47 89 -1 20 -9 34 -17 31 -22 -8 -81 86 -64 101 8 8 18 3 23
-11 5 -14 27 -25 48 -25 48 0 51 72 6 122 -29 33 -28 37 10 61 23 15 42 38 42
52 0 41 76 105 110 92 16 -6 30 -20 30 -31 0 -10 20 -17 45 -14 43 4 68 -3
170 -43 24 -10 58 -13 74 -7 20 8 33 -6 42 -45 7 -31 15 -66 18 -78 4 -11 55
-18 119 -16 86 3 112 -2 112 -24 0 -16 9 -29 20 -29 31 0 23 -54 -10 -67 -18
-7 -30 0 -30 18 0 16 -10 29 -21 29 -12 0 -16 -9 -9 -20 7 -11 3 -51 -7 -90
-11 -38 -13 -70 -5 -70 9 0 17 -33 18 -73 3 -84 62 -158 136 -172 63 -12 62
25 -2 85 -65 61 -65 152 -2 246 27 39 45 75 40 80 -5 5 13 4 41 -1 46 -9 51
-3 51 53 0 59 -4 62 -82 62 -76 0 -123 21 -358 162 -53 32 -148 74 -245 108
-53 18 -108 46 -124 62 -15 15 -36 28 -46 28 -20 0 -25 28 -27 150 -1 68 -4
73 -19 35 -10 -25 -20 -45 -23 -45 -15 0 10 212 26 229 10 10 18 34 18 52 0
17 40 76 89 129 109 119 204 135 363 62 54 -25 172 -63 263 -85 l165 -40 -2
142 c-2 77 -7 124 -12 104 -30 -117 -130 -136 -237 -44 -33 28 -65 51 -72 51
-8 0 -20 28 -27 62 -8 35 -22 54 -31 45 -21 -21 -2 -107 23 -107 10 0 18 -18
18 -39 0 -35 -6 -37 -55 -15 -116 51 -138 71 -105 96 25 18 25 20 -5 10 -20
-6 -54 4 -75 23 -47 40 -52 69 -10 52 43 -16 37 19 -10 53 -29 21 -33 32 -15
44 18 12 12 26 -22 53 -40 31 -44 43 -25 79 12 23 21 49 20 58 -6 37 3 55 17
34 35 -53 104 -52 128 0 13 28 40 57 60 63 20 6 37 20 37 31 0 23 136 -32 184
-75 33 -31 96 -25 96 8 0 9 -27 26 -60 39 -63 24 -82 66 -30 66 17 0 30 17 30
39 0 58 42 73 78 28 69 -85 102 -75 102 34 l0 99 -130 0 c-116 0 -132 5 -162
50 -34 52 -77 65 -99 29z m-89 -128 c0 -5 -38 -26 -85 -47 -47 -21 -107 -62
-133 -91 -27 -29 -61 -53 -75 -53 -31 0 -29 99 3 132 30 31 290 84 290 59z
m-2769 -3055 c5 -35 -56 -68 -89 -47 -10 6 -13 30 -8 52 14 50 90 46 97 -5z
m-195 -179 c4 -22 -12 -30 -55 -30 -70 0 -75 8 -26 45 42 32 73 26 81 -15z
m228 -161 c-19 -7 -25 -15 -14 -17 22 -4 50 -10 80 -18 11 -3 45 -4 75 -2 30
2 55 -6 55 -17 0 -20 -14 -24 -100 -30 -56 -4 -48 -72 9 -72 28 0 51 9 51 20
0 11 25 21 55 21 92 3 147 33 90 50 -56 17 -58 49 -5 63 22 6 40 17 40 26 0 8
54 16 120 17 66 2 120 -5 120 -14 0 -10 36 -24 80 -31 44 -7 80 -24 80 -37 0
-29 78 -83 95 -66 7 6 -14 38 -45 71 -142 148 27 41 200 -127 104 -100 121
-110 126 -75 9 58 44 53 44 -6 0 -47 -47 -83 -80 -62 -10 6 -22 3 -27 -6 -15
-24 -348 -11 -456 18 -135 37 -550 -1 -687 -62 -55 -24 -149 -57 -210 -72
-143 -37 -194 -64 -206 -110 -12 -43 -79 -51 -110 -13 -28 34 -5 216 29 229
15 6 22 18 16 28 -6 10 7 37 30 62 23 24 41 60 41 80 0 20 10 36 21 36 13 0
16 -17 9 -40 -17 -53 4 -51 53 5 27 30 37 34 30 12 -8 -25 0 -30 33 -21 24 6
32 15 20 19 -44 14 15 105 67 105 26 0 47 -10 47 -22 0 -16 9 -15 30 2 17 14
30 42 30 62 0 21 10 38 22 38 12 0 17 -15 10 -32 -9 -24 -4 -29 19 -20 18 6
39 12 48 12 8 0 11 23 6 51 l-10 50 51 -45 c46 -40 48 -48 18 -60z m2473 -98
c-4 -26 -22 -50 -40 -54 -30 -6 -31 2 -12 65 24 78 63 69 52 -11z m-1283 -261
c25 -24 46 -56 46 -70 0 -15 8 -27 17 -27 10 0 16 -27 15 -60 -1 -33 -11 -58
-22 -55 -11 3 -18 20 -15 39 2 19 -23 64 -55 100 -90 98 -79 159 14 73z"/>
<path d="M2645 2027 c-35 -14 -31 -67 5 -67 17 0 30 4 30 8 0 5 5 23 12 40 12
32 -1 37 -47 19z"/>
<path d="M3700 5661 c0 -9 16 -21 35 -27 19 -6 82 -34 140 -61 57 -28 109 -42
116 -32 6 10 -28 35 -75 56 -125 55 -216 82 -216 64z"/>
<path d="M3080 5600 c0 -33 -13 -40 -76 -40 -42 0 -86 -10 -98 -22 -13 -13
-59 -19 -104 -15 -86 8 -114 -14 -37 -29 25 -5 8 -5 -38 0 -46 4 -88 0 -95
-10 -16 -27 -337 -8 -356 21 -13 20 -19 20 -32 0 -10 -15 -53 -24 -105 -22
-154 5 -374 -44 -385 -86 -9 -32 -5 -33 33 -13 27 14 232 28 553 36 434 12
529 20 640 55 249 79 553 116 694 84 113 -25 130 -13 44 32 -55 29 -100 32
-302 20 -165 -10 -236 -8 -236 7 0 12 -22 22 -50 22 -37 0 -50 -11 -50 -40z"/>
<path d="M3834 5506 c22 -56 114 -126 131 -99 27 43 15 72 -35 85 -27 7 -50
20 -50 30 0 10 -13 18 -29 18 -20 0 -25 -12 -17 -34z"/>
<path d="M533 5430 c-17 -17 -38 -30 -47 -29 -8 1 -18 -8 -22 -19 -4 -12 16
-22 46 -22 33 0 47 8 39 22 -8 12 -2 30 13 39 15 9 21 22 15 29 -7 6 -26 -2
-44 -20z"/>
<path d="M3999 5316 c43 -46 74 -38 54 13 -6 17 -30 31 -53 31 l-42 0 41 -44z"/>
<path d="M2945 5307 c-97 -35 -111 -67 -29 -67 58 0 144 49 144 81 0 24 -11
23 -115 -14z"/>
<path d="M3785 5326 c30 -5 55 -17 55 -27 0 -11 17 -19 38 -19 24 0 41 -18 47
-50 11 -58 -19 -66 -56 -16 -21 29 -30 30 -56 8 -25 -20 -46 -21 -96 -4 -79
28 -257 28 -329 1 -36 -14 -61 -14 -75 0 -26 26 -113 -66 -113 -120 0 -21 -8
-39 -18 -39 -10 0 -14 -17 -9 -37 6 -22 -2 -42 -19 -49 -19 -7 -34 3 -40 27
-6 22 -2 39 9 39 11 0 13 9 6 21 -21 35 -75 12 -82 -34 -3 -24 7 -54 23 -67
45 -38 37 -55 -40 -83 -93 -33 -98 -97 -8 -97 56 0 62 5 53 50 -6 34 0 50 18
50 15 0 27 -9 27 -20 0 -11 9 -20 20 -20 11 0 20 14 20 31 0 17 24 35 58 42
32 6 77 37 101 70 24 32 52 53 63 46 11 -7 44 -7 73 0 41 11 47 18 24 32 -32
20 13 120 62 136 17 6 19 -1 7 -19 -58 -92 1 -159 68 -79 24 27 26 25 17 -14
-9 -46 14 -62 37 -25 7 12 21 15 32 9 10 -6 14 -20 8 -30 -6 -9 14 -18 44 -18
31 0 83 -4 116 -8 33 -3 84 -8 113 -10 81 -5 132 -93 85 -146 -30 -33 -33 -51
-15 -116 19 -72 -27 -137 -59 -84 -4 7 -4 1 0 -15 9 -35 -51 -81 -108 -81 -24
-1 -49 -10 -56 -21 -7 -11 -34 -20 -60 -20 -26 0 -61 -13 -77 -30 -17 -16 -39
-30 -51 -30 -11 0 -43 -20 -70 -45 -28 -25 -87 -70 -131 -101 -95 -66 -114
-143 -31 -122 91 23 50 -52 -45 -81 -54 -16 -88 41 -43 73 21 15 18 16 -12 6
-22 -8 -56 -19 -75 -25 -41 -11 -44 -28 -11 -61 17 -17 17 -24 2 -24 -13 0
-28 11 -34 25 -10 20 -14 20 -24 0 -6 -14 -29 -25 -50 -25 -30 0 -38 -14 -38
-70 0 -75 -20 -88 -60 -40 -14 17 -37 30 -51 30 -15 0 -32 18 -39 40 -16 51
-50 52 -50 2 0 -21 18 -42 40 -48 22 -6 40 -20 40 -32 0 -30 -74 -28 -87 3 -6
15 -10 11 -11 -10 -2 -27 -19 -35 -74 -35 -64 0 -70 -4 -47 -31 20 -25 29 -26
42 -5 13 21 16 21 17 0 0 -15 -13 -40 -30 -57 -34 -34 -39 -67 -10 -67 11 0
20 -9 20 -20 0 -11 -13 -20 -30 -20 -17 0 -30 -18 -30 -40 0 -23 13 -40 32
-40 22 0 28 -11 20 -33 -7 -17 -2 -44 10 -60 17 -20 16 -35 -5 -60 -19 -24
-20 -36 -4 -41 12 -4 18 -25 13 -47 -6 -21 3 -60 20 -85 34 -53 20 -175 -22
-189 -25 -9 -35 64 -27 188 3 41 -7 66 -27 74 -41 16 -65 -45 -28 -71 22 -15
22 -21 3 -29 -14 -6 -25 -44 -25 -84 0 -51 -13 -86 -42 -110 l-42 -36 44 -31
c32 -23 37 -35 19 -46 -13 -9 -18 -26 -10 -38 9 -16 23 -13 44 8 51 51 234 32
213 -23 -9 -24 -2 -24 42 -4 31 14 49 35 44 50 -12 31 44 65 99 60 47 -4 45
96 -2 149 -16 17 -29 46 -29 63 0 18 -16 48 -35 67 -19 19 -37 54 -39 77 -6
75 -41 261 -44 236 -1 -14 -11 -25 -21 -25 -11 0 -15 12 -10 27 6 14 2 66 -9
115 -13 55 -13 90 -1 95 10 3 19 19 19 33 0 216 240 -204 268 -469 10 -97 22
-120 111 -210 80 -81 100 -116 104 -177 3 -42 12 -81 21 -87 51 -31 13 -119
-74 -172 -49 -30 -90 -68 -90 -85 0 -43 34 -38 134 21 47 28 96 45 107 38 13
-8 16 6 8 40 -13 48 -10 50 34 34 46 -18 47 -16 46 104 0 151 -22 220 -62 204
-19 -7 -27 -2 -22 14 8 21 -48 124 -85 155 -82 70 -136 240 -76 240 13 0 6 13
-15 30 -32 24 -34 32 -11 48 33 21 -5 142 -44 142 -11 0 -15 6 -8 13 24 24
-46 127 -88 127 -22 0 -35 9 -28 20 7 12 21 15 31 9 11 -6 19 -2 19 10 0 11
-13 21 -30 21 -16 0 -30 9 -30 20 0 30 53 24 87 -10 30 -30 73 -41 73 -19 0
32 -45 89 -71 89 -16 0 -29 9 -29 20 0 22 120 4 149 -23 10 -9 36 -17 56 -17
20 0 72 -17 116 -38 43 -21 79 -29 79 -18 0 43 -85 136 -126 137 l-44 2 43 17
c24 10 50 38 58 64 8 25 24 53 37 61 14 9 9 15 -13 15 -19 0 -35 -10 -35 -21
0 -12 -9 -16 -20 -9 -20 12 -6 36 66 108 30 31 77 50 231 95 22 6 23 13 3 37
-20 24 -19 30 6 30 17 0 34 -11 39 -25 7 -19 17 -18 44 4 31 26 38 25 63 -9
30 -40 -18 -88 -91 -89 -53 -2 -261 -70 -261 -85 0 -20 -10 -21 120 14 159 43
232 38 308 -20 36 -27 72 -43 80 -35 22 21 72 -54 72 -107 0 -29 -30 -68 -85
-111 -47 -36 -91 -75 -99 -86 -8 -11 -9 29 -3 89 19 192 -150 278 -280 143
-79 -82 -73 -252 9 -255 91 -3 158 -28 158 -58 0 -20 20 -30 60 -30 33 0 60 9
60 20 0 11 -9 20 -20 20 -11 0 -20 9 -20 20 0 22 139 -61 140 -83 0 -7 -22
-27 -50 -45 -60 -40 -79 -262 -20 -239 20 7 24 21 12 42 -22 41 -4 105 30 105
16 0 29 -9 31 -20 1 -11 3 -29 5 -39 1 -10 13 -30 27 -44 14 -14 25 -45 25
-69 0 -25 11 -49 25 -55 20 -8 20 -10 0 -11 -14 -1 -25 -13 -25 -27 0 -14 -36
-48 -80 -75 -85 -52 -104 -83 -44 -67 20 5 49 -5 65 -24 33 -40 -26 -97 -86
-82 -19 5 -35 0 -35 -11 0 -11 18 -24 40 -30 22 -6 40 -24 40 -40 0 -19 -12
-26 -30 -19 -16 7 -30 4 -30 -6 0 -9 34 -25 75 -35 55 -13 73 -28 69 -53 -3
-19 5 -31 19 -28 24 5 29 -6 35 -75 1 -16 18 -30 37 -30 21 0 26 -6 14 -15
-36 -25 -49 -83 -30 -133 10 -27 11 -54 1 -64 -30 -30 14 -173 64 -212 37 -29
41 -39 18 -54 -23 -15 -23 -27 0 -79 34 -77 107 -34 86 50 -7 26 -4 47 6 47
11 0 15 49 10 111 -6 69 0 130 16 159 15 28 20 70 12 104 -8 31 -16 71 -19 89
-3 17 -20 55 -39 84 -19 28 -34 60 -34 70 0 9 -23 51 -50 92 -47 68 -52 127
-9 100 11 -6 19 16 19 49 0 78 24 90 86 42 67 -53 70 -51 70 28 0 37 10 85 21
107 16 29 14 49 -6 76 -29 41 -20 87 26 121 17 13 24 36 17 56 -14 36 76 192
110 192 11 0 17 29 13 65 -3 36 2 77 11 92 10 16 2 36 -21 54 -20 15 -29 28
-19 28 10 1 2 19 -18 41 -28 31 -41 35 -53 15 -11 -17 -16 -12 -17 18 0 43
-75 80 -104 51 -47 -47 -50 -184 -7 -271 76 -150 65 -262 -20 -192 -23 19 -29
18 -29 -7 0 -23 -19 -30 -70 -28 -76 4 -99 58 -36 83 27 10 29 17 9 29 -21 13
-20 19 5 29 18 6 32 28 31 47 0 34 -2 34 -26 1 -23 -29 -32 -30 -63 -7 -42 31
-9 206 43 226 77 30 0 170 -152 275 -44 31 -81 65 -81 76 0 36 108 -7 193 -76
l83 -68 1 117 c2 86 -6 121 -27 129 -42 16 -56 -19 -40 -103 l13 -74 -62 60
c-60 56 -61 60 -24 77 50 22 56 49 54 228 -1 80 5 145 15 145 9 0 32 15 49 33
31 30 35 29 52 -10 11 -24 26 -43 34 -43 24 0 -1 72 -39 113 -18 20 -49 79
-69 130 -19 51 -50 97 -69 103 -19 5 -51 16 -71 25 -31 13 -35 8 -24 -26 7
-23 3 -48 -9 -55 -11 -7 -15 -23 -7 -35 9 -14 1 -17 -21 -8 -20 7 -39 13 -43
13 -4 0 -3 14 4 30 8 22 2 27 -22 18 -23 -9 -33 -4 -30 14 11 80 -3 114 -46
115 -25 1 -76 5 -115 9 -38 5 -45 5 -15 0z m115 -1356 c0 -19 -19 -30 -50 -30
-49 0 -64 19 -37 47 25 25 87 13 87 -17z m530 -530 c-6 -9 -1 -23 10 -30 13
-8 13 -26 -2 -54 -21 -39 -24 -40 -42 -8 -23 42 -3 139 25 121 11 -6 15 -20 9
-29z"/>
<path d="M513 5275 c-18 -66 -16 -75 17 -75 21 0 25 -12 14 -45 -20 -60 -17
-96 13 -150 26 -48 6 -113 -42 -131 -14 -5 8 -8 48 -7 64 3 71 7 53 40 -11 20
-14 58 -7 85 8 32 3 48 -14 49 -14 0 -10 9 10 21 42 24 46 95 7 110 -15 6 -34
42 -41 79 -15 79 -41 90 -58 24z"/>
<path d="M5671 5147 c-14 -55 -44 -62 -57 -12 -5 19 -10 6 -12 -30 -1 -46 -12
-65 -34 -65 -27 0 -28 -5 -8 -30 14 -16 38 -30 53 -30 16 0 33 14 40 30 6 17
24 30 39 30 15 0 28 8 28 19 0 34 75 43 169 19 113 -28 135 -14 52 35 -34 20
-58 46 -54 57 5 13 -32 22 -98 23 -95 1 -107 -3 -118 -46z"/>
<path d="M2039 5119 c-35 -49 -48 -55 -80 -38 -26 13 -39 14 -39 0 0 -11 -14
-14 -31 -8 -30 12 -46 7 -174 -54 -52 -24 -94 -60 -153 -130 -19 -23 -45 -29
-84 -22 -42 9 -54 5 -46 -15 6 -15 -5 -33 -23 -40 -22 -8 -36 0 -43 27 -10 38
-62 71 -82 51 -6 -5 0 -10 12 -10 13 0 18 -13 11 -30 -6 -16 -19 -25 -29 -19
-10 6 -18 -3 -18 -21 0 -21 9 -27 25 -17 14 9 9 -9 -10 -38 -19 -30 -35 -63
-35 -75 0 -12 -19 -48 -43 -79 -29 -40 -38 -73 -30 -108 9 -32 2 -61 -17 -80
-16 -17 -30 -48 -30 -70 0 -23 -9 -46 -20 -53 -36 -22 -21 -50 28 -50 41 0 49
12 61 95 18 128 50 225 74 225 11 0 49 31 85 69 62 66 296 171 379 171 18 0
33 10 33 21 0 46 62 81 150 82 99 2 127 23 90 67 -29 35 -10 70 39 70 23 0 45
-23 58 -60 23 -67 63 -81 63 -21 0 58 38 70 59 17 18 -44 19 -43 20 14 2 50 6
54 22 26 11 -19 16 -57 11 -85 -7 -36 -1 -51 21 -51 19 0 26 -12 18 -35 -7
-24 4 -42 34 -55 30 -14 47 -40 51 -83 4 -35 18 -68 32 -74 21 -8 21 4 0 64
-14 40 -27 98 -27 128 -1 30 -10 55 -21 55 -11 0 -25 36 -32 80 -8 46 -24 80
-39 80 -15 0 -29 25 -33 55 -5 46 -16 55 -69 57 -34 1 -77 7 -94 14 -21 8 -46
-8 -74 -47z"/>
<path d="M4731 5087 c7 -31 25 -97 40 -147 15 -49 35 -116 45 -149 22 -78 63
-90 58 -17 -4 50 3 57 61 62 62 6 65 10 62 90 -1 46 -6 64 -11 39 -5 -25 -22
-45 -37 -45 -16 0 -29 -13 -29 -30 0 -34 -17 -37 -58 -12 -16 11 -23 35 -17
60 7 27 2 42 -16 42 -35 0 -55 33 -57 96 -1 28 -14 55 -28 59 -19 7 -22 -6
-13 -48z"/>
<path d="M3658 4892 c-85 -26 -138 -66 -138 -104 0 -16 -9 -28 -20 -28 -11 0
-20 -19 -20 -42 0 -25 -16 -46 -40 -52 -36 -10 -49 -30 -42 -71 1 -8 -23 -43
-53 -77 -30 -34 -54 -70 -53 -80 1 -10 3 -32 5 -50 3 -32 52 -29 54 4 0 10 72
90 160 178 241 242 298 367 147 322z"/>
<path d="M5024 4817 c7 -72 56 -105 56 -39 0 23 9 42 20 42 11 0 20 9 20 19 0
11 -13 15 -30 8 -16 -6 -30 -1 -30 11 0 12 -10 22 -21 22 -12 0 -19 -28 -15
-63z"/>
<path d="M4360 4794 c0 -55 8 -74 32 -74 25 0 29 12 19 55 -23 90 -51 101 -51
19z"/>
<path d="M303 4807 c-15 -16 -21 -36 -14 -43 7 -7 20 -1 29 13 12 19 21 18 41
-6 14 -17 34 -26 43 -20 32 20 19 49 -20 49 -21 0 -42 8 -45 18 -4 10 -19 5
-34 -11z"/>
<path d="M483 4705 c-87 -74 -65 -116 57 -108 129 7 214 61 92 57 -85 -2 -139
37 -92 67 17 10 20 19 7 19 -12 0 -41 -16 -64 -35z"/>
<path d="M1920 4632 c0 -27 -11 -53 -25 -59 -15 -6 -11 -10 9 -11 22 -1 31
-13 23 -32 -6 -16 -21 -24 -32 -17 -13 8 -15 4 -6 -11 9 -14 56 -23 118 -21
57 2 118 -3 136 -10 18 -8 39 -4 47 9 8 13 -3 27 -28 34 -23 6 -42 19 -42 28
0 10 -32 18 -71 18 -57 0 -70 7 -66 35 7 40 -17 85 -44 85 -11 0 -19 -22 -19
-48z"/>
<path d="M4454 4567 c-7 -7 0 -36 16 -65 17 -29 39 -78 51 -110 14 -41 27 -52
41 -38 15 15 5 53 -31 124 -54 107 -57 110 -77 89z"/>
<path d="M401 4541 c-44 -28 -54 -270 -10 -253 18 6 36 12 41 12 4 0 8 18 8
40 0 22 -9 40 -20 40 -11 0 -20 18 -20 40 0 22 9 40 20 40 11 0 20 -13 20 -29
0 -16 9 -34 20 -41 12 -8 20 23 20 79 0 93 -19 110 -79 72z"/>
<path d="M5340 4501 c0 -10 10 -25 21 -32 14 -8 6 -24 -20 -42 -22 -16 -41
-42 -41 -58 0 -38 58 -37 73 1 6 17 26 30 44 30 29 1 29 3 3 22 -23 16 -24 24
-5 31 45 19 27 67 -25 67 -27 0 -50 -8 -50 -19z"/>
<path d="M3183 4436 c-98 -182 -98 -183 -72 -210 41 -40 67 -31 82 29 7 30 23
62 35 70 15 10 14 14 -3 15 -32 0 -33 54 -2 64 16 6 17 19 4 43 -18 32 -22 31
-44 -11z"/>
<path d="M5674 4423 c-30 -18 -54 -42 -54 -54 0 -13 -22 -33 -50 -45 -27 -13
-51 -30 -51 -39 -13 -156 -7 -205 26 -205 25 0 38 22 47 79 7 43 27 93 45 110
18 16 56 52 85 79 l52 48 85 -38 c103 -46 141 -48 141 -8 0 17 -15 30 -33 30
-18 0 -43 13 -55 29 -34 44 -175 53 -238 14z"/>
<path d="M2284 4367 c9 -51 56 -57 56 -9 0 25 -13 42 -31 42 -19 0 -29 -14
-25 -33z"/>
<path d="M1623 4300 c-59 -21 -120 -49 -135 -62 -16 -13 -35 -18 -42 -10 -8 7
-25 -30 -38 -82 -33 -128 -24 -129 88 -12 76 79 117 105 195 122 201 45 229
48 229 24 0 -12 7 -18 15 -14 30 18 100 -24 111 -65 8 -34 3 -40 -24 -32 -155
50 -417 -16 -526 -131 -41 -43 -91 -78 -112 -78 -68 0 -66 -77 4 -125 15 -11
8 -28 -21 -52 -28 -24 -38 -46 -27 -63 9 -14 11 -40 5 -56 -13 -34 -2 -30 100
33 41 26 75 56 75 66 0 11 19 14 42 6 37 -11 39 -8 20 28 -63 117 -9 233 138
296 75 32 462 53 480 26 6 -8 45 -22 87 -30 92 -17 70 51 -29 92 -30 12 -73
40 -96 61 -23 22 -89 47 -147 57 -237 41 -283 41 -392 1z"/>
<path d="M2360 4280 c-38 -30 -42 -39 -17 -40 23 0 30 -12 23 -40 -6 -22 -1
-40 12 -40 12 0 22 17 22 39 0 21 7 43 15 48 9 5 12 -28 8 -73 -7 -77 -6 -81
27 -54 31 26 34 25 27 -11 -5 -24 -22 -37 -43 -33 -20 3 -34 -7 -34 -24 0 -20
-11 -26 -33 -18 -20 7 -43 -1 -58 -22 -14 -19 -45 -36 -69 -38 -27 -2 -66 -35
-102 -87 -73 -106 -73 -120 2 -67 32 23 78 46 100 50 22 4 55 22 72 39 17 17
43 31 58 31 15 0 31 11 37 25 6 15 10 11 11 -10 1 -19 -7 -35 -18 -35 -11 0
-19 -7 -18 -15 7 -43 -5 -63 -32 -52 -17 6 -44 0 -61 -14 -16 -13 -35 -20 -41
-14 -6 7 -29 -6 -51 -28 -38 -38 -38 -42 -5 -66 32 -24 31 -28 -19 -61 -29
-19 -53 -47 -53 -62 0 -14 -18 -36 -39 -48 -23 -12 -35 -33 -28 -50 16 -43 77
-4 110 70 15 33 36 60 47 60 11 0 32 26 46 59 15 32 53 70 85 85 33 14 59 37
59 51 0 14 12 25 26 25 33 0 115 244 114 340 -1 97 -27 136 -68 101 -22 -17
-32 -18 -32 -3 0 32 -23 27 -80 -18z"/>
<path d="M5920 4280 c0 -43 -4 -51 -31 -66 -16 -9 -29 -33 -29 -54 0 -21 -9
-43 -20 -50 -25 -16 -25 -131 0 -170 15 -23 19 -15 20 34 0 35 13 77 30 93 17
17 24 45 17 64 -11 29 -7 31 31 10 24 -13 38 -32 31 -42 -6 -10 -2 -19 10 -19
37 0 23 110 -17 139 -21 15 -34 39 -28 54 6 15 5 27 -2 27 -7 0 -12 -9 -12
-20z"/>
<path d="M272 4177 c-45 -64 -41 -78 39 -155 56 -55 75 -64 95 -44 19 19 17
30 -11 51 -20 14 -35 51 -35 86 0 87 -47 120 -88 62z"/>
<path d="M4902 4181 c-18 -11 -21 -31 -10 -64 9 -26 16 -54 17 -62 2 -30 39
-17 52 19 17 50 -26 128 -59 107z"/>
<path d="M447 4141 c-16 -38 -15 -56 6 -77 32 -31 36 -84 7 -84 -35 0 -22 -40
31 -93 65 -65 78 -53 39 39 -16 39 -24 86 -18 103 7 17 3 31 -9 31 -11 0 -24
29 -28 65 -7 65 -7 65 -28 16z"/>
<path d="M2139 4068 c57 -74 83 -88 113 -58 38 37 35 68 -7 67 -19 0 -57 6
-85 15 -47 14 -48 12 -21 -24z"/>
<path d="M5580 4040 c0 -37 178 -200 219 -200 62 0 49 52 -20 80 -33 14 -88
51 -122 83 -67 62 -77 67 -77 37z"/>
<path d="M1785 4000 c-81 -33 -107 -137 -58 -227 47 -85 25 -81 274 -41 l72
12 -23 91 c-38 149 -143 214 -265 165z m135 -140 c0 -11 -4 -20 -8 -20 -5 0
-22 -5 -38 -11 -16 -6 -34 3 -41 20 -9 23 1 31 38 31 27 0 49 -9 49 -20z"/>
<path d="M263 3894 c36 -28 29 -134 -9 -134 -11 0 -16 -5 -10 -10 18 -18 76
13 76 40 0 15 11 30 24 35 29 9 -52 95 -89 94 -16 0 -13 -9 8 -25z"/>
<path d="M633 3767 c4 -24 -4 -48 -18 -53 -19 -7 -20 -15 -2 -34 13 -14 19
-37 13 -52 -6 -17 3 -28 22 -28 36 0 44 70 11 91 -14 8 -14 21 2 41 16 18 16
28 3 28 -12 0 -25 11 -30 25 -4 14 -5 5 -1 -18z"/>
<path d="M1680 3669 c0 -63 118 -86 200 -39 l50 29 -50 0 c-27 0 -63 -8 -80
-18 -20 -13 -44 -10 -75 10 -25 17 -45 25 -45 18z"/>
<path d="M3860 3602 c26 -19 26 -24 1 -41 -42 -27 -22 -35 53 -22 78 13 65 51
-24 71 -46 10 -53 8 -30 -8z"/>
<path d="M5440 3520 c0 -72 -5 -80 -51 -80 -44 0 -48 -5 -29 -40 12 -22 34
-40 49 -40 15 0 32 -11 37 -25 5 -14 10 40 11 120 1 80 -2 145 -8 145 -5 0 -9
-36 -9 -80z"/>
<path d="M1275 3512 c-40 -31 -47 -60 -10 -46 14 5 40 1 58 -8 21 -11 41 -7
57 12 50 60 -35 95 -105 42z"/>
<path d="M5623 3468 c-38 -82 -30 -188 14 -188 31 0 37 17 38 110 1 124 -18
153 -52 78z"/>
<path d="M1882 3388 c-49 -24 -105 -38 -125 -33 -20 5 -37 0 -37 -13 0 -12 10
-22 22 -22 12 0 17 -13 11 -29 -11 -29 32 -23 77 10 11 9 54 22 95 29 72 14
90 38 60 80 -10 13 -47 5 -103 -22z"/>
<path d="M3546 3378 c-28 -28 -9 -98 26 -98 30 0 37 55 12 95 -12 18 -22 19
-38 3z"/>
<path d="M258 3303 c-43 -119 -66 -174 -78 -183 -90 -73 -180 -255 -177 -358
1 -62 7 -90 12 -62 9 48 69 150 113 190 28 25 101 152 156 270 23 50 53 113
67 140 24 47 22 50 -24 53 -37 2 -55 -11 -69 -50z"/>
<path d="M4490 3280 c-14 -43 1 -80 31 -80 11 0 19 14 19 30 0 17 -9 30 -19
30 -11 0 -15 14 -8 30 6 17 6 30 0 30 -5 0 -16 -18 -23 -40z"/>
<path d="M3873 3203 c-18 -20 -33 -49 -33 -65 1 -18 6 -20 15 -6 8 12 41 28
72 36 47 11 52 19 32 43 -31 38 -46 37 -86 -8z"/>
<path d="M4582 3156 c2 -61 3 -63 17 -16 15 47 16 48 32 10 24 -59 89 -96 89
-50 0 11 -12 20 -27 20 -14 0 -25 20 -25 45 2 32 -11 47 -43 51 -39 6 -45 -2
-43 -60z"/>
<path d="M1389 3098 c-8 -12 1 -36 19 -54 29 -30 32 -29 32 10 0 23 11 47 25
53 14 5 5 11 -19 11 -24 1 -50 -8 -57 -20z"/>
<path d="M2424 3062 c-1 -47 6 -56 36 -48 36 9 36 14 7 58 -40 60 -41 60 -43
-10z"/>
<path d="M4600 3031 c0 -15 17 -34 39 -41 21 -6 41 -32 45 -56 9 -65 45 -53
52 17 5 50 -4 66 -46 85 -68 31 -90 30 -90 -5z"/>
<path d="M5804 2903 c-105 -25 -125 -37 -117 -67 6 -22 -2 -36 -19 -36 -15 0
-28 -8 -28 -18 0 -10 -38 -37 -84 -59 -85 -43 -115 -34 -116 33 0 40 -68 19
-77 -23 -4 -23 8 -40 35 -47 27 -7 42 -27 42 -56 0 -78 50 -100 118 -52 41 30
64 36 73 20 10 -16 19 -14 31 5 13 20 17 16 18 -16 0 -34 22 -52 95 -79 52
-20 101 -44 107 -54 18 -25 103 -9 113 21 5 14 -6 25 -24 25 -147 0 -329 229
-231 290 11 7 20 30 20 51 0 34 15 39 120 39 93 0 120 7 120 30 0 35 -28 34
-196 -7z"/>
<path d="M1360 2890 c0 -16 18 -41 40 -55 22 -13 40 -37 40 -51 0 -15 11 -24
25 -19 35 11 44 75 11 75 -14 0 -38 18 -51 40 -30 47 -65 53 -65 10z"/>
<path d="M4620 2894 c0 -14 14 -45 31 -69 28 -40 28 -43 0 -33 -17 7 -31 21
-31 31 0 11 -9 14 -20 7 -12 -7 -8 -30 11 -59 22 -34 24 -49 7 -55 -13 -4 -25
-48 -27 -97 -3 -49 -11 -118 -19 -154 -9 -39 -7 -65 5 -65 17 0 69 235 71 325
1 49 41 31 48 -22 4 -23 21 -43 38 -43 23 0 27 13 17 53 -11 45 -9 50 15 30
24 -19 27 -15 19 27 -7 35 -17 45 -32 32 -33 -27 -93 22 -93 75 0 24 -9 43
-20 43 -11 0 -20 -11 -20 -26z"/>
<path d="M800 2795 c-2 -272 -77 -401 -470 -803 l-330 -338 0 -175 c0 -97 5
-190 12 -207 18 -48 50 -16 37 37 -9 32 -2 50 24 59 56 22 124 -87 109 -174
-2 -10 7 -11 19 -3 66 40 -74 328 -159 330 -27 0 -27 3 2 20 19 11 29 33 23
50 -11 28 35 40 111 30 17 -3 23 7 15 27 -8 22 0 32 26 32 51 0 101 20 101 42
0 9 -14 12 -30 5 -17 -6 -30 -1 -30 11 0 12 14 22 30 22 17 0 30 14 30 30 0
23 14 28 55 20 161 -33 185 -35 185 -11 0 14 -18 29 -40 35 -22 6 -40 18 -40
27 0 9 -29 8 -64 -2 -83 -24 -95 -10 -23 28 68 36 129 104 110 124 -7 8 7 8
32 0 35 -11 42 -7 33 18 -15 37 14 41 49 6 19 -19 23 -9 15 50 -5 44 -1 71 9
64 11 -6 19 -1 19 12 0 47 94 137 117 114 17 -17 23 -17 23 0 0 12 16 26 35
31 31 8 31 10 -2 12 -30 2 -35 13 -25 57 6 30 21 105 33 165 12 61 31 137 42
170 25 72 -6 170 -53 170 -22 0 -30 -22 -30 -85z"/>
<path d="M433 2847 c-21 -22 -15 -47 12 -47 14 0 37 -18 50 -40 14 -22 17 -40
7 -40 -10 0 -22 8 -25 19 -17 45 -117 47 -117 1 0 -27 -15 -48 -40 -54 -45
-12 -53 -38 -15 -52 17 -7 13 -18 -14 -39 -38 -30 -59 -115 -28 -115 10 0 17
-13 17 -30 0 -16 9 -30 20 -30 11 0 20 18 20 40 0 22 13 40 30 40 17 0 30 14
30 30 0 17 -13 30 -30 30 -16 0 -30 7 -30 16 0 16 109 104 129 104 17 0 131
-124 131 -143 0 -9 9 -17 20 -17 29 0 25 115 -5 127 -16 6 -12 10 9 11 18 1
37 -14 42 -33 7 -27 10 -25 12 9 2 39 -88 167 -148 211 -25 18 -59 19 -77 2z"/>
<path d="M3653 2801 c-34 -12 -34 -15 -5 -39 23 -19 32 -20 32 -3 0 13 7 19
16 14 9 -6 27 -3 42 6 35 21 -35 40 -85 22z"/>
<path d="M4020 2786 c0 -35 48 -66 103 -66 54 0 92 28 62 47 -34 21 -165 36
-165 19z"/>
<path d="M4660 2603 c0 -49 10 -60 62 -70 51 -11 59 -18 39 -41 -15 -19 -16
-33 -3 -41 33 -20 52 90 20 113 -22 15 -22 21 -3 29 45 18 26 42 -25 32 -29
-6 -50 0 -50 13 0 12 -9 22 -20 22 -11 0 -20 -26 -20 -57z"/>
<path d="M4105 2525 c-53 -60 -42 -90 24 -66 26 10 51 14 56 9 5 -5 5 14 0 42
-13 70 -28 73 -80 15z"/>
<path d="M1436 2421 c5 -34 17 -61 28 -61 26 0 11 105 -16 114 -13 4 -18 -16
-12 -53z"/>
<path d="M0 2348 c0 -47 9 -68 30 -68 26 0 38 21 33 62 0 6 12 11 28 11 16 0
29 -7 29 -16 0 -9 -9 -17 -20 -17 -11 0 -20 -9 -20 -20 0 -11 18 -20 40 -20
91 0 52 130 -40 133 -78 3 -80 1 -80 -65z"/>
<path d="M1628 2288 c7 -17 12 -35 12 -40 0 -23 57 -4 68 24 18 46 17 48 -40
48 -39 0 -49 -8 -40 -32z"/>
<path d="M3880 2189 c0 -17 8 -26 18 -20 9 6 29 -3 42 -19 14 -17 35 -30 47
-30 13 0 -2 23 -31 50 -63 58 -76 61 -76 19z"/>
<path d="M850 2180 c-7 -11 -5 -20 4 -20 9 0 28 -19 42 -41 24 -38 23 -40 -14
-20 -22 12 -45 30 -52 41 -7 11 -26 20 -44 20 -24 0 -26 -6 -7 -28 16 -20 16
-33 2 -41 -87 -54 8 -112 103 -63 55 29 136 22 136 -10 0 -10 9 -18 20 -18 42
0 18 79 -35 116 -95 67 -142 86 -155 64z"/>
<path d="M24 2056 c-29 -29 -33 -164 -4 -146 11 7 20 35 20 62 0 27 14 54 30
61 17 6 30 19 30 29 0 26 -48 22 -76 -6z"/>
<path d="M5912 1752 c-6 -27 -7 -62 -1 -78 14 -35 -22 -64 -41 -34 -21 34 -50
22 -50 -22 0 -30 9 -39 32 -30 21 8 35 -1 42 -29 7 -26 22 -37 40 -30 16 6 38
11 48 11 10 0 18 18 18 40 0 22 -11 40 -24 40 -19 0 -19 5 0 24 41 41 31 156
-14 156 -23 0 -42 -19 -50 -48z"/>
<path d="M1632 1744 c-5 -9 -7 -43 -3 -75 3 -33 -2 -70 -13 -83 -14 -17 -5
-28 31 -37 69 -17 106 7 60 40 -32 24 -32 27 9 40 55 17 57 51 4 51 -22 0 -40
13 -40 29 0 34 -33 59 -48 35z"/>
<path d="M1527 1690 c-24 -62 13 -105 43 -50 14 27 22 56 17 65 -15 25 -47 17
-60 -15z"/>
<path d="M2707 1595 c-36 -59 2 -195 55 -195 35 0 19 117 -17 126 -19 5 10 10
65 11 141 3 190 -13 190 -64 -1 -42 -2 -41 -39 6 l-38 50 -25 -55 c-33 -72
-16 -83 86 -58 47 11 113 18 146 15 33 -3 40 -2 16 3 -26 5 -46 26 -50 52 -4
27 -19 43 -39 41 -20 -1 -30 9 -24 24 14 35 -63 56 -111 30 -64 -34 -209 -27
-195 9 14 36 1 40 -20 5z"/>
<path d="M2133 1445 c12 -49 10 -52 -18 -29 -51 42 -90 -82 -48 -151 8 -14 6
-25 -5 -25 -11 0 -28 15 -39 33 -16 29 -20 27 -33 -14 -10 -30 -7 -50 7 -55
36 -12 27 -74 -17 -114 -22 -20 -40 -52 -40 -72 0 -19 -14 -49 -31 -67 -33
-32 -27 -76 19 -136 33 -44 92 -26 92 27 0 21 9 38 20 38 11 0 20 -27 20 -60
0 -33 -7 -60 -15 -60 -41 -1 -64 -106 -30 -132 52 -40 73 -24 91 69 18 91 54
113 54 33 0 -27 19 -69 42 -92 23 -23 44 -52 46 -65 2 -13 13 -40 25 -61 12
-21 17 -54 12 -75 -6 -25 1 -37 23 -37 19 0 32 -17 32 -42 0 -35 5 -38 28 -19
20 16 33 16 41 2 27 -43 74 -23 59 24 -27 83 -20 193 12 202 17 5 8 10 -20 11
-83 4 -105 31 -108 135 -2 53 -11 113 -20 132 -12 26 -8 35 16 35 20 0 32 -17
33 -45 0 -41 2 -42 21 -9 12 20 41 44 65 54 40 16 39 18 -12 19 -30 0 -55 8
-55 16 0 8 -23 16 -51 18 -67 4 -80 19 -50 56 29 35 12 71 -35 71 -27 -1 -28
-4 -7 -18 19 -12 21 -21 5 -31 -12 -7 -22 -4 -22 8 0 41 -41 20 -61 -31 -14
-37 -13 -61 3 -80 13 -16 15 -28 5 -28 -9 0 -39 -6 -67 -14 -45 -12 -47 -10
-22 21 22 27 23 45 5 85 -30 64 -29 68 8 68 25 0 26 8 8 42 -25 46 -10 107 21
88 11 -7 20 -40 20 -73 0 -48 7 -59 32 -49 17 7 35 12 40 12 17 0 7 78 -12 90
-11 7 -20 30 -20 51 0 22 -10 39 -22 39 -24 0 -19 118 7 153 10 14 7 41 -9 65
-36 59 -59 52 -43 -13z m156 -729 c11 -8 13 -20 5 -28 -28 -29 -116 76 -90
107 21 25 28 22 45 -18 11 -26 29 -53 40 -61z m60 -167 c38 -39 41 -89 3 -89
-15 0 -31 26 -36 60 -10 69 -9 70 33 29z"/>
<path d="M4520 1470 l-50 -29 51 0 c28 -1 73 -21 99 -45 43 -41 46 -41 31 -5
-9 21 -16 55 -15 74 2 42 -47 44 -116 5z"/>
<path d="M1892 1345 c18 -102 32 -120 51 -68 18 49 -11 143 -43 143 -14 0 -17
-27 -8 -75z"/>
<path d="M252 1345 c18 -71 24 -78 40 -38 15 40 -3 93 -32 93 -13 0 -16 -22
-8 -55z"/>
<path d="M1271 1326 c-17 -86 -58 -173 -107 -223 -19 -19 -88 -96 -154 -171
-117 -134 -410 -387 -574 -496 -45 -30 -101 -73 -124 -94 -54 -51 -209 -121
-267 -122 -45 0 -56 -29 -33 -88 8 -20 37 -32 79 -32 46 0 69 -11 75 -35 7
-26 10 -24 12 10 1 25 11 45 22 45 11 0 40 22 63 49 24 27 51 45 60 39 9 -6
17 -1 17 11 0 11 11 21 25 21 14 1 39 30 55 65 17 36 44 65 60 66 17 0 28 12
25 25 -3 13 3 24 12 24 25 0 77 -130 115 -285 33 -134 108 -201 108 -96 0 21
14 52 31 69 19 19 29 55 24 87 l-7 55 -21 -48 c-17 -39 -20 -29 -20 64 1 61 7
108 15 103 17 -11 38 40 38 90 0 22 14 35 35 34 25 -2 37 16 45 67 8 57 19 70
55 68 25 0 45 7 45 17 0 9 8 12 18 6 17 -11 51 45 45 74 -2 8 15 15 37 15 27
0 52 24 74 70 18 39 40 70 47 70 8 0 25 27 39 60 14 33 32 55 41 49 9 -5 28 2
42 17 45 48 141 -21 126 -91 -11 -51 105 -157 154 -141 7 3 18 -8 24 -25 7
-16 1 -29 -11 -29 -13 0 -4 -18 20 -41 24 -22 44 -56 44 -75 1 -29 4 -29 19
-5 15 24 23 18 40 -27 18 -47 30 -54 73 -43 l51 13 -36 -62 c-40 -67 -21 -99
58 -100 40 0 49 -72 10 -86 -14 -5 -18 -16 -10 -24 23 -25 75 31 75 81 0 32
-14 49 -45 55 -25 5 -16 7 19 5 39 -2 69 8 75 25 17 43 14 46 -38 32 -45 -11
-49 -7 -42 46 6 48 -10 76 -91 157 -168 171 -415 511 -471 650 -39 99 -78 101
-96 5z"/>
<path d="M3400 1339 c-27 -8 -156 -31 -285 -50 -130 -20 -245 -47 -257 -61
-17 -20 -32 -21 -73 -2 -40 18 -54 18 -60 -1 -6 -18 -16 -17 -38 5 -17 17 -39
25 -51 18 -12 -8 1 -32 32 -58 55 -47 71 -96 26 -79 -24 9 -134 -73 -134 -100
0 -17 57 -13 95 7 153 77 274 97 259 42 -12 -47 25 -180 50 -180 10 0 8 17 -3
39 -29 54 -26 81 10 81 17 0 45 -34 62 -75 17 -41 42 -81 54 -89 17 -11 16
-26 -4 -58 -20 -33 -20 -40 -1 -34 46 15 71 75 40 95 -16 9 -31 41 -34 69 -5
46 10 61 55 55 7 -1 0 25 -17 59 -31 62 -81 70 -70 11 9 -53 -30 -38 -44 16
-22 88 23 151 90 127 37 -12 58 -34 58 -58 0 -21 9 -38 20 -38 11 0 20 15 20
32 0 27 5 29 31 7 25 -20 26 -29 5 -42 -20 -12 -21 -24 -2 -54 13 -21 18 -57
12 -81 -8 -30 -1 -42 22 -42 28 0 31 15 21 90 -13 96 -9 102 54 69 29 -16 47
-15 68 2 21 17 29 17 29 1 0 -12 14 -22 30 -22 17 0 30 -10 30 -22 0 -16 9
-15 30 2 36 30 40 67 5 55 -30 -10 -75 32 -75 70 0 15 -10 37 -23 50 -17 17
-14 36 12 76 41 63 21 90 -49 68z"/>
<path d="M3481 1216 c10 -36 19 -67 19 -70 0 -2 25 -2 55 0 40 3 55 -5 55 -30
0 -18 7 -40 15 -48 8 -8 15 -4 15 9 0 13 23 33 50 43 28 10 50 28 50 40 0 11
23 20 51 20 47 0 49 3 20 32 -29 29 -35 28 -68 -14 -34 -41 -121 -44 -96 -3
22 35 -86 63 -119 30 -28 -28 -31 -28 -25 5 4 20 -4 40 -17 44 -18 7 -19 -8
-5 -58z"/>
<path d="M3901 1095 c1 -58 99 -132 99 -75 0 11 -8 20 -18 20 -9 0 -22 18 -28
40 -11 44 -54 56 -53 15z"/>
<path d="M2820 975 c-27 -34 -76 -87 -108 -118 -32 -31 -48 -57 -36 -57 12 0
27 9 34 20 7 11 32 20 57 20 35 0 52 21 79 93 42 114 38 120 -26 42z"/>
<path d="M3804 972 c-4 -56 6 -76 55 -112 50 -35 61 -37 61 -11 0 17 -9 31
-20 31 -11 0 -20 18 -20 40 0 22 -9 40 -20 40 -11 0 -20 18 -20 40 0 68 -32
44 -36 -28z"/>
<path d="M561 951 c-22 -26 -20 -31 14 -31 22 0 51 -13 65 -30 39 -47 58 -35
42 25 -17 64 -82 83 -121 36z"/>
<path d="M4160 914 c0 -27 -13 -81 -29 -119 -28 -66 -27 -71 8 -81 23 -6 35
-1 30 13 -17 46 64 124 98 95 41 -34 68 -15 68 48 0 36 -11 50 -37 50 -21 0
-38 -9 -38 -20 0 -11 -12 -20 -28 -20 -15 0 -26 15 -25 33 2 18 -8 37 -22 42
-16 5 -25 -10 -25 -41z"/>
<path d="M3680 920 c0 -11 -7 -18 -15 -15 -8 3 -15 -4 -15 -15 0 -11 11 -19
25 -17 14 1 26 -12 27 -30 2 -31 5 -46 17 -93 7 -30 37 71 39 135 2 42 -7 55
-38 55 -22 0 -40 -9 -40 -20z"/>
<path d="M2900 855 c0 -55 48 -195 66 -195 22 0 -1 106 -38 176 -20 38 -28 44
-28 19z"/>
<path d="M3522 833 c-63 -76 48 -313 114 -243 32 34 32 35 -2 23 -24 -8 -39
-1 -46 22 -6 19 -24 59 -40 88 -40 75 -34 118 7 52 42 -68 62 -70 50 -6 -13
69 -53 99 -83 64z"/>
<path d="M415 785 c-30 -15 -56 -42 -57 -61 -1 -19 -4 -47 -7 -64 -2 -16 -6
-45 -8 -64 -1 -18 -14 -45 -28 -60 -63 -67 -155 -215 -126 -204 16 7 49 43 72
80 23 37 49 68 58 68 8 0 37 43 63 94 52 102 88 149 112 145 8 -1 18 8 22 20
4 11 -2 21 -13 21 -11 0 -23 12 -27 26 -5 20 -17 20 -61 -1z"/>
<path d="M80 750 c-71 -26 -125 -230 -60 -230 12 0 20 11 19 25 -9 68 1 80 61
68 50 -10 60 -6 60 28 0 21 10 39 21 39 27 0 16 85 -11 91 -11 2 -51 -7 -90
-21z"/>
<path d="M2548 669 c-14 -57 -7 -73 25 -53 39 25 53 104 19 104 -17 0 -37 -23
-44 -51z"/>
<path d="M3718 707 c-2 -9 -1 -25 1 -35 2 -10 -9 -26 -23 -36 -18 -12 -10 -16
24 -12 34 4 50 18 50 44 0 37 -48 72 -52 39z"/>
<path d="M3881 635 c1 -145 50 -176 52 -33 1 86 -6 118 -26 118 -19 0 -27 -27
-26 -85z"/>
<path d="M3351 635 c-39 -185 -32 -266 25 -286 64 -23 144 -15 144 15 0 11
-13 15 -29 9 -17 -6 -34 -4 -40 6 -13 21 46 45 71 30 10 -6 24 2 30 19 9 24
19 25 49 7 44 -28 69 -10 52 36 -9 21 -26 28 -53 19 -31 -10 -45 -1 -59 39
-11 28 -24 51 -30 51 -5 0 -5 -12 0 -26 6 -16 -12 -37 -42 -51 -47 -21 -54
-19 -63 17 -6 22 -19 40 -30 40 -17 0 -11 36 19 115 5 14 0 25 -11 25 -11 0
-26 -29 -33 -65z"/>
<path d="M3004 640 c-28 -45 20 -138 71 -139 28 -1 33 24 10 47 -8 8 -24 41
-35 74 -20 56 -21 57 -46 18z"/>
<path d="M2730 560 c-9 -41 -25 -60 -52 -60 -21 0 -38 -9 -38 -20 0 -24 100
-20 134 5 44 33 102 -5 135 -88 18 -46 49 -85 72 -91 25 -7 39 -28 39 -60 0
-26 8 -43 19 -37 10 6 24 3 31 -9 19 -30 50 -24 50 10 0 17 14 30 31 30 17 0
26 -8 20 -18 -21 -34 34 -222 65 -222 19 0 24 11 13 35 -9 19 -20 73 -24 118
-9 88 -85 147 -155 120 -16 -7 -30 -3 -30 8 0 10 8 19 18 19 30 0 44 63 21 91
-24 29 -86 16 -68 -13 6 -10 2 -18 -10 -18 -11 0 -21 7 -21 15 0 9 -20 38 -45
65 -25 28 -54 76 -65 108 -30 88 -122 96 -140 12z"/>
<path d="M4600 590 c-14 -16 -38 -30 -54 -30 -24 0 -24 -5 3 -31 17 -18 47
-28 66 -23 33 9 33 9 0 12 -43 3 -47 42 -5 42 17 0 30 14 30 30 0 17 -3 30 -8
30 -4 0 -18 -13 -32 -30z"/>
<path d="M3680 559 c0 -9 9 -22 20 -29 11 -7 14 -37 7 -66 -12 -51 -11 -52 25
-22 21 18 54 38 74 45 20 7 31 22 23 34 -7 12 -26 17 -41 11 -15 -6 -28 -3
-28 6 0 10 -18 22 -40 28 -22 6 -40 3 -40 -7z"/>
<path d="M4220 563 c0 -11 11 -24 25 -30 18 -7 13 -20 -15 -43 -40 -31 -9 -84
34 -57 9 5 16 0 16 -12 0 -31 105 -2 134 37 33 46 -2 74 -58 47 -25 -12 -35
-23 -21 -24 14 0 25 -11 25 -22 0 -12 -20 -19 -45 -15 -35 5 -45 19 -45 64 0
32 -11 62 -25 67 -14 5 -25 -1 -25 -12z"/>
<path d="M2964 470 c24 -54 46 -63 68 -27 8 13 -2 35 -23 50 -55 41 -71 33
-45 -23z"/>
<path d="M3205 442 c-71 -35 -75 -75 -6 -67 35 4 41 -3 31 -34 -8 -26 0 -45
27 -60 28 -14 36 -34 28 -64 -7 -27 -4 -38 9 -30 42 25 43 89 2 100 -33 9 -38
23 -30 102 6 50 9 90 7 88 -2 -1 -32 -17 -68 -35z"/>
<path d="M3971 422 c-7 -12 -3 -22 9 -22 14 0 18 -17 9 -45 -12 -41 -10 -42
14 -11 15 19 59 37 97 41 l70 6 -56 29 c-49 24 -59 24 -75 -1 -16 -24 -22 -24
-36 -2 -13 19 -22 21 -32 5z"/>
<path d="M824 221 c4 -250 29 -267 32 -22 1 112 -6 201 -16 201 -11 0 -18 -80
-16 -179z"/>
<path d="M2560 367 c0 -32 21 -32 174 0 72 15 38 33 -61 33 -91 0 -113 -6
-113 -33z"/>
<path d="M2093 301 c12 -63 -19 -87 -40 -31 -20 51 -53 33 -53 -27 0 -58 55
-73 119 -34 11 7 21 4 21 -8 0 -12 -13 -27 -30 -34 -32 -12 -42 -87 -12 -87
54 0 101 128 61 165 -21 20 -39 49 -39 65 0 15 -9 33 -20 40 -12 7 -15 -11 -7
-49z"/>
<path d="M4512 345 c-8 -8 -25 -15 -37 -15 -12 0 -26 -13 -31 -28 -7 -21 4
-24 48 -13 72 18 81 26 55 52 -11 11 -27 13 -35 4z"/>
<path d="M4585 275 c-66 -140 -78 -190 -38 -157 18 15 33 48 33 74 0 49 31 66
44 26 4 -12 9 15 11 60 4 103 -1 102 -50 -3z"/>
<path d="M2710 299 c-15 -48 49 -113 73 -74 16 26 -1 75 -26 75 -11 0 -14 9
-7 20 7 11 3 20 -7 20 -11 0 -26 -19 -33 -41z"/>
<path d="M3860 293 c0 -26 19 -64 43 -85 43 -38 43 -38 30 12 -7 28 -13 66
-13 85 0 19 -13 35 -30 35 -18 0 -30 -19 -30 -47z"/>
<path d="M4235 290 c-8 -43 -2 -50 43 -50 42 1 46 5 22 22 -23 16 -24 24 -5
31 38 16 30 47 -13 47 -24 0 -41 -18 -47 -50z"/>
<path d="M2332 231 c8 -21 27 -27 60 -19 40 10 48 5 48 -31 0 -24 9 -38 20
-31 35 22 21 67 -25 80 -115 33 -115 33 -103 1z"/>
<path d="M3469 188 c-6 -21 -20 -54 -31 -73 -15 -28 -10 -35 24 -35 28 0 39 9
32 28 -6 15 -1 37 12 50 16 16 16 28 -1 45 -18 18 -27 15 -36 -15z"/>
<path d="M2381 139 c-1 -17 7 -40 17 -50 10 -10 22 -37 28 -59 7 -32 10 -30
12 11 1 28 -11 69 -27 90 -24 31 -30 33 -30 8z"/>
<path d="M2852 87 c-7 -17 -3 -45 7 -64 17 -28 20 -26 20 13 1 26 10 41 21 34
11 -7 20 -4 20 7 0 33 -56 42 -68 10z"/>
</g>
</svg>
